<svg width="240" height="80" viewBox="0 0 240 80" fill="none" xmlns="http://www.w3.org/2000/svg">
<g clip-path="url(#clip0_135_214)">
<path d="M4.5814 75.5032C4.5814 76.1676 4.34986 76.7072 3.88678 77.1202C3.42371 77.5332 2.81762 77.7387 2.06853 77.7387C1.26325 77.7387 0.573739 77.6249 0 77.3974L0.124282 76.5494C0.757608 76.8376 1.40626 76.9807 2.06853 76.9807C3.18366 76.9807 3.74037 76.531 3.74037 75.6317C3.74037 75.1728 3.54629 74.8388 3.15982 74.6259C2.77165 74.4148 2.27623 74.3084 1.67355 74.3084C1.38923 74.3084 1.12875 74.3175 0.892105 74.3359L1.00617 73.5412C1.20026 73.5595 1.46755 73.5687 1.80804 73.5687C2.90275 73.5687 3.45095 73.1594 3.45095 72.3426C3.45095 71.6342 2.95212 71.2818 1.95616 71.2818C1.31602 71.2818 0.759311 71.3882 0.284316 71.6011L0.40349 70.7752C0.842732 70.6082 1.49479 70.5237 2.36306 70.5237C2.99979 70.5237 3.47819 70.6724 3.79826 70.9698C4.11832 71.2671 4.27836 71.6433 4.27836 72.0985C4.27836 72.8639 3.92083 73.3998 3.20409 73.71V73.7632C4.12513 73.956 4.58481 74.536 4.58481 75.5069L4.5814 75.5032Z" fill="#1E1919"/>
<path d="M10.5044 76.8798C10.5044 77.0652 10.4652 77.5002 10.3886 78.1866C10.3103 78.873 10.2728 79.4035 10.2728 79.7761H9.68377C9.68377 79.3246 9.67866 78.5775 9.66845 77.535C9.2207 77.513 8.58737 77.5038 7.76847 77.5038C7.2441 77.5038 6.68398 77.5148 6.08641 77.535C5.93148 78.5775 5.85317 79.3246 5.85317 79.7761H5.26411C5.26411 79.4567 5.26241 79.0034 5.2573 78.4179C5.25219 77.8324 5.25049 77.3203 5.25049 76.8798H5.74081C6.07449 75.5895 6.64653 74.1267 7.45692 72.495H8.88701L9.55438 72.394C9.51182 73.1374 9.48969 74.0477 9.48969 75.1251C9.48969 75.5583 9.51863 76.1438 9.57822 76.8798H10.5027H10.5044ZM8.82231 76.8798C8.78656 76.186 8.76783 75.6005 8.76783 75.1251C8.76783 74.413 8.75421 73.7596 8.72868 73.1612H7.86722C7.66292 73.5595 7.41946 74.0918 7.14025 74.7581C6.85934 75.4243 6.63291 76.1309 6.45755 76.8779H8.82231V76.8798Z" fill="#1E1919"/>
<path d="M15.9166 74.8205C15.9166 75.5895 15.7123 76.2613 15.3054 76.8394C14.8985 77.4176 14.3316 77.7057 13.6063 77.7057C13.0002 77.7057 12.6001 77.5883 12.4094 77.3533H12.3601C12.3601 78.3426 12.3703 79.2236 12.389 79.9982H11.4595C11.5361 79.0529 11.5735 77.8838 11.5735 76.4944C11.5735 74.7801 11.4918 73.4531 11.3267 72.5152L12.1983 72.3812L12.2732 72.9098H12.3226C12.6427 72.5079 13.1602 72.3078 13.877 72.3078C14.5069 72.3078 15.0057 72.5556 15.3718 73.0511C15.7378 73.5467 15.9217 74.1359 15.9217 74.8186L15.9166 74.8205ZM15.0364 74.949C15.0364 74.4222 14.907 73.9725 14.6499 73.5963C14.3928 73.2218 14.0319 73.0328 13.5671 73.0328C12.973 73.0328 12.5473 73.2273 12.2903 73.6146C12.343 74.8095 12.3703 75.8355 12.3703 76.6926C12.6376 76.9349 12.9849 77.056 13.4139 77.056C13.9587 77.056 14.3639 76.8504 14.6329 76.4375C14.9019 76.0245 15.0364 75.5289 15.0364 74.949Z" fill="#1E1919"/>
<path d="M20.8998 72.495C20.8998 72.7226 20.6513 73.4476 20.1524 74.6718C19.5821 76.0685 19.228 77.0542 19.0884 77.6268C18.8602 78.5555 18.6491 79.1447 18.455 79.398C18.1912 79.7467 17.7213 79.9211 17.0454 79.9211L17.0062 79.174C17.4182 79.174 17.7621 79.0235 18.0345 78.7207C18.3086 78.4179 18.4448 78.0398 18.4448 77.5846C18.4448 77.19 18.1418 76.2502 17.534 74.7672C16.9262 73.2842 16.6232 72.5262 16.6232 72.495H17.6481C17.6481 72.5904 17.8558 73.2383 18.2712 74.4369C18.6866 75.6354 18.8943 76.3732 18.8943 76.6504H18.9437C18.9437 76.4191 19.119 75.7492 19.4714 74.6388C19.8221 73.5302 19.9992 72.8144 19.9992 72.495H20.8998Z" fill="#1E1919"/>
<path d="M27.9855 77.5626H27.09C27.0628 77.513 27.0236 77.4194 26.9708 77.2854C26.7597 76.5421 26.5333 76.0263 26.2933 75.7382C26.0532 75.45 25.7365 75.3068 25.3433 75.3068C25.2632 75.3068 25.19 75.3105 25.1202 75.3179C25.1202 76.1401 25.1458 76.8871 25.1951 77.5626H24.2945C24.3439 76.8871 24.3694 76.1383 24.3694 75.3179C24.2741 75.3105 24.1873 75.3068 24.1073 75.3068C23.714 75.3068 23.3973 75.45 23.1573 75.7382C22.9172 76.0263 22.6908 76.5421 22.4797 77.2854C22.4558 77.3643 22.4167 77.4561 22.3605 77.5626H21.5042C21.5433 77.4708 21.6165 77.2744 21.7221 76.9752C21.9162 76.364 22.1187 75.8997 22.3282 75.5822C22.5376 75.2665 22.7997 75.0572 23.113 74.9581V74.9049C22.6448 74.7122 22.2226 74.0606 21.8464 72.9465C21.8038 72.818 21.7476 72.6675 21.6778 72.4932H22.5188C22.5444 72.5317 22.5818 72.6143 22.6278 72.7391C22.924 74.0257 23.4399 74.67 24.172 74.67C24.2537 74.67 24.3201 74.6663 24.3694 74.6589C24.3694 73.8312 24.3473 73.108 24.3047 72.4932H25.1849C25.1424 73.108 25.1202 73.8293 25.1202 74.6589C25.1866 74.6663 25.2598 74.67 25.3433 74.67C26.0753 74.67 26.5895 74.0257 26.8874 72.7391C26.9079 72.6565 26.9436 72.5758 26.9964 72.4932H27.8136C27.7812 72.5758 27.725 72.7263 27.645 72.9465C27.2688 74.0588 26.8466 74.7122 26.3784 74.9049V74.9581C26.6916 75.0572 26.9538 75.2665 27.1632 75.5822C27.3726 75.8978 27.5752 76.3622 27.7693 76.9752C27.8289 77.1643 27.9004 77.3588 27.9872 77.5626H27.9855Z" fill="#1E1919"/>
<path d="M33.0811 74.4314C33.0811 74.58 33.0743 74.7874 33.0606 75.0499L29.6608 75.1141C29.6931 75.6336 29.8804 76.0685 30.2192 76.4191C30.5597 76.7697 31.0091 76.944 31.5693 76.944C32.0698 76.944 32.5414 76.878 32.9789 76.7458L32.8955 77.4983C32.572 77.6378 32.1055 77.7057 31.496 77.7057C30.638 77.7057 29.9842 77.4524 29.5348 76.9477C29.0853 76.443 28.8589 75.8281 28.8589 75.1013C28.8589 74.3267 29.0649 73.6587 29.4752 73.0989C29.8855 72.5391 30.4371 72.2582 31.13 72.2582C31.7667 72.2582 32.2502 72.4601 32.5822 72.8658C32.9142 73.2714 33.0794 73.7926 33.0794 74.4277L33.0811 74.4314ZM32.2554 74.4424C32.2554 73.4439 31.8672 72.9428 31.0926 72.9428C30.3179 72.9428 29.8344 73.4623 29.6931 74.5011L32.2554 74.4424Z" fill="#1E1919"/>
<path d="M38.1818 77.5626H37.3152C37.3578 76.8835 37.3816 76.1016 37.385 75.2151H35.0151C35.0151 76.0116 35.0407 76.7935 35.09 77.5626H34.2235C34.2729 76.8523 34.2984 76.0392 34.2984 75.1251C34.2984 74.0973 34.2388 73.2347 34.1196 72.5372L35.0798 72.394C35.0628 72.6492 35.0424 73.3631 35.0151 74.5323H37.3748C37.3544 73.7357 37.2999 73.0713 37.2114 72.5372L38.1716 72.394C38.129 73.1374 38.1069 74.0477 38.1069 75.1251C38.1069 75.9786 38.1324 76.7917 38.1818 77.5626Z" fill="#1E1919"/>
<path d="M43.5412 77.5626H42.6559C42.7053 76.955 42.7308 76.142 42.7308 75.1251C42.7308 74.837 42.7478 74.4057 42.7802 73.8293H42.7308C42.661 74.0753 42.2115 74.7195 41.3807 75.7657C40.5925 76.7642 40.1975 77.3643 40.1975 77.5626H39.4944C39.5403 76.8523 39.5642 76.0392 39.5642 75.1251C39.5642 74.0973 39.5063 73.2347 39.3905 72.5372L40.3694 72.394C40.3269 73.0511 40.3047 73.8899 40.3047 74.9067C40.3047 75.2665 40.2945 75.7216 40.2758 76.2723H40.3252C40.4018 76.0483 40.8495 75.4041 41.6718 74.3414C42.4431 73.343 42.8295 72.7409 42.8295 72.539L43.5327 72.3959C43.4935 73.1392 43.4731 74.0496 43.4731 75.127C43.4731 75.9804 43.4969 76.7935 43.5429 77.5644L43.5412 77.5626Z" fill="#1E1919"/>
<path d="M48.9091 74.4314C48.9091 74.58 48.9023 74.7874 48.8887 75.0499L45.4888 75.1141C45.5212 75.6336 45.7084 76.0685 46.0472 76.4191C46.3877 76.7697 46.8372 76.944 47.3973 76.944C47.8978 76.944 48.3694 76.878 48.807 76.7458L48.7236 77.4983C48.4001 77.6378 47.9336 77.7057 47.3241 77.7057C46.4661 77.7057 45.8123 77.4524 45.3628 76.9477C44.9134 76.443 44.687 75.8281 44.687 75.1013C44.687 74.3267 44.893 73.6587 45.3033 73.0989C45.7136 72.5391 46.2652 72.2582 46.9581 72.2582C47.5948 72.2582 48.0783 72.4601 48.4103 72.8658C48.7423 73.2714 48.9074 73.7926 48.9074 74.4277L48.9091 74.4314ZM48.0834 74.4424C48.0834 73.4439 47.6952 72.9428 46.9206 72.9428C46.146 72.9428 45.6625 73.4623 45.5212 74.5011L48.0834 74.4424Z" fill="#1E1919"/>
<path d="M56.2077 77.5626H55.3411C55.3837 76.8835 55.4075 76.1016 55.4109 75.2151H53.0411C53.0411 76.0116 53.0666 76.7935 53.116 77.5626H52.2494C52.2988 76.8523 52.3243 76.0392 52.3243 75.1251C52.3243 74.0973 52.2647 73.2347 52.1456 72.5372L53.1058 72.394C53.0887 72.6492 53.0683 73.3631 53.0411 74.5323H55.4007C55.3803 73.7357 55.3258 73.0713 55.2373 72.5372L56.1975 72.394C56.1549 73.1374 56.1328 74.0477 56.1328 75.1251C56.1328 75.9786 56.1583 76.7917 56.2077 77.5626Z" fill="#1E1919"/>
<path d="M61.2352 77.5626L60.4588 77.5938C60.4197 77.4194 60.3993 77.2542 60.3993 77.0982H60.3499C59.9447 77.4965 59.3914 77.6947 58.6917 77.6947C58.312 77.6947 57.9851 77.5754 57.7127 77.335C57.4386 77.0945 57.3024 76.7531 57.3024 76.309C57.3024 75.762 57.5169 75.3215 57.946 74.9893C58.375 74.6571 59.1718 74.4809 60.3363 74.4644C60.3465 74.3781 60.3516 74.2808 60.3516 74.1707C60.3516 73.7339 60.2443 73.4421 60.0281 73.2952C59.8119 73.1502 59.485 73.0768 59.0458 73.0768C58.5282 73.0768 58.0175 73.1466 57.5169 73.2842L57.6004 72.5482C58.0958 72.3959 58.6644 72.3188 59.308 72.3188C59.8953 72.3188 60.3482 72.4491 60.6683 72.7116C60.9883 72.9722 61.1484 73.4182 61.1484 74.0477C61.1484 74.2148 61.1415 74.5176 61.1262 74.9581C61.1109 75.3968 61.1041 75.6904 61.1041 75.8354C61.1041 76.4833 61.1484 77.0578 61.2369 77.5644L61.2352 77.5626ZM60.3601 76.5274C60.3431 75.9878 60.3346 75.5014 60.3346 75.0719C59.7149 75.0719 59.2433 75.1215 58.9198 75.2206C58.3784 75.3986 58.1077 75.7382 58.1077 76.2392C58.1077 76.7403 58.4244 76.9642 59.0577 76.9642C59.6025 76.9642 60.0349 76.8192 60.3584 76.5274H60.3601Z" fill="#1E1919"/>
<path d="M68.6461 77.5626H67.7796C67.8221 76.8835 67.846 76.1016 67.8494 75.2151H65.4795C65.4795 76.0116 65.505 76.7935 65.5544 77.5626H64.6878C64.7372 76.8523 64.7627 76.0392 64.7627 75.1251C64.7627 74.0973 64.7032 73.2347 64.584 72.5372L65.5442 72.394C65.5272 72.6492 65.5067 73.3631 65.4795 74.5323H67.8391C67.8187 73.7357 67.7642 73.0713 67.6757 72.5372L68.6359 72.394C68.5933 73.1374 68.5712 74.0477 68.5712 75.1251C68.5712 75.9786 68.5968 76.7917 68.6461 77.5626Z" fill="#1E1919"/>
<path d="M73.6735 77.5626L72.8972 77.5938C72.858 77.4194 72.8376 77.2542 72.8376 77.0982H72.7882C72.383 77.4965 71.8297 77.6947 71.13 77.6947C70.7504 77.6947 70.4235 77.5754 70.1511 77.335C69.877 77.0945 69.7408 76.7531 69.7408 76.309C69.7408 75.762 69.9553 75.3215 70.3843 74.9893C70.8134 74.6571 71.6101 74.4809 72.7746 74.4644C72.7848 74.3781 72.7899 74.2808 72.7899 74.1707C72.7899 73.7339 72.6827 73.4421 72.4665 73.2952C72.2503 73.1502 71.9234 73.0768 71.4841 73.0768C70.9666 73.0768 70.4558 73.1466 69.9553 73.2842L70.0387 72.5482C70.5341 72.3959 71.1028 72.3188 71.7463 72.3188C72.3337 72.3188 72.7865 72.4491 73.1066 72.7116C73.4267 72.9722 73.5867 73.4182 73.5867 74.0477C73.5867 74.2148 73.5799 74.5176 73.5646 74.9581C73.5493 75.3968 73.5424 75.6904 73.5424 75.8354C73.5424 76.4833 73.5867 77.0578 73.6752 77.5644L73.6735 77.5626ZM72.7985 76.5274C72.7814 75.9878 72.7729 75.5014 72.7729 75.0719C72.1532 75.0719 71.6816 75.1215 71.3581 75.2206C70.8168 75.3986 70.5461 75.7382 70.5461 76.2392C70.5461 76.7403 70.8627 76.9642 71.4961 76.9642C72.0408 76.9642 72.4733 76.8192 72.7968 76.5274H72.7985Z" fill="#1E1919"/>
<path d="M78.5273 76.7458L78.478 77.4616C78.2107 77.625 77.8532 77.7076 77.4037 77.7076C76.549 77.7076 75.897 77.4524 75.4441 76.944C74.993 76.4356 74.7665 75.8226 74.7665 75.1031C74.7665 74.3414 75.0049 73.688 75.4799 73.1411C75.9549 72.5941 76.5831 72.3188 77.3645 72.3188C77.7578 72.3188 78.0779 72.361 78.3247 72.4473L78.1919 73.2842C77.8463 73.1447 77.4939 73.0768 77.1381 73.0768C76.6699 73.0768 76.2971 73.253 76.0196 73.6054C75.7421 73.9578 75.6042 74.3983 75.6042 74.9287C75.6042 75.5051 75.7693 75.9841 76.0996 76.3695C76.4299 76.7531 76.8964 76.9459 77.499 76.9459C77.7459 76.9459 78.0898 76.8798 78.5273 76.7476V76.7458Z" fill="#1E1919"/>
<path d="M83.0985 72.495L83.0696 73.2897C82.5316 73.2328 82.0038 73.2035 81.4863 73.2035C81.4727 73.6972 81.4658 74.3377 81.4658 75.1233C81.4658 75.9768 81.4914 76.7898 81.5408 77.5607H80.6401C80.6861 76.8504 80.7099 76.0373 80.7099 75.1233C80.7099 74.3579 80.6963 73.7192 80.6708 73.2035C80.1566 73.2035 79.6238 73.2328 79.0721 73.2897L79.1011 72.495H83.0985Z" fill="#1E1919"/>
<path d="M87.6868 77.5626L86.9104 77.5938C86.8713 77.4194 86.8509 77.2542 86.8509 77.0982H86.8015C86.3963 77.4965 85.843 77.6947 85.1433 77.6947C84.7636 77.6947 84.4367 77.5754 84.1643 77.335C83.8902 77.0945 83.754 76.7531 83.754 76.309C83.754 75.762 83.9685 75.3215 84.3976 74.9893C84.8266 74.6571 85.6234 74.4809 86.7879 74.4644C86.7981 74.3781 86.8032 74.2808 86.8032 74.1707C86.8032 73.7339 86.6959 73.4421 86.4797 73.2952C86.2635 73.1502 85.9366 73.0768 85.4974 73.0768C84.9798 73.0768 84.4691 73.1466 83.9685 73.2842L84.052 72.5482C84.5474 72.3959 85.116 72.3188 85.7596 72.3188C86.3469 72.3188 86.7998 72.4491 87.1198 72.7116C87.4399 72.9722 87.5999 73.4182 87.5999 74.0477C87.5999 74.2148 87.5931 74.5176 87.5778 74.9581C87.5625 75.3968 87.5557 75.6904 87.5557 75.8354C87.5557 76.4833 87.6 77.0578 87.6885 77.5644L87.6868 77.5626ZM86.8117 76.5274C86.7947 75.9878 86.7862 75.5014 86.7862 75.0719C86.1665 75.0719 85.6949 75.1215 85.3714 75.2206C84.83 75.3986 84.5593 75.7382 84.5593 76.2392C84.5593 76.7403 84.876 76.9642 85.5093 76.9642C86.0541 76.9642 86.4865 76.8192 86.81 76.5274H86.8117Z" fill="#1E1919"/>
<path d="M92.8266 76.0631C92.8266 76.5604 92.6393 76.9404 92.2631 77.201C91.8868 77.4616 91.3505 77.5938 90.6542 77.5938C90.2848 77.5938 89.7144 77.5828 88.9415 77.5626C88.9875 77.0762 89.0113 76.2594 89.0113 75.1141C89.0113 74.0514 88.9534 73.1778 88.8376 72.495H89.3518C89.8438 72.4565 90.3427 72.4363 90.8517 72.4363C92.0264 72.4363 92.6138 72.8272 92.6138 73.6091C92.6138 74.1854 92.3754 74.58 91.897 74.7929V74.8462C92.5167 74.9747 92.8266 75.3803 92.8266 76.0631ZM91.8511 73.8385C91.8511 73.3411 91.514 73.0915 90.8415 73.0915C90.5112 73.0915 90.1298 73.108 89.6991 73.1392C89.7246 73.655 89.7383 74.1506 89.7383 74.6278C90.1503 74.6461 90.4993 74.6553 90.7819 74.6553C91.1224 74.6553 91.388 74.5764 91.5787 74.4204C91.7608 74.2754 91.8511 74.0808 91.8511 73.8385ZM92.0247 76.1163C92.0247 75.7492 91.8698 75.5033 91.5599 75.3748C91.3692 75.2958 91.0696 75.2573 90.6644 75.2573C90.3546 75.2573 90.0464 75.2702 89.74 75.294C89.74 75.9272 89.7434 76.454 89.7502 76.8725C90.0498 76.9147 90.4107 76.9367 90.8296 76.9367C91.628 76.9367 92.0264 76.6632 92.0264 76.1144L92.0247 76.1163Z" fill="#1E1919"/>
<path d="M97.9579 77.5626H97.0913C97.1339 76.8835 97.1577 76.1016 97.1611 75.2151H94.7913C94.7913 76.0116 94.8168 76.7935 94.8662 77.5626H93.9996C94.049 76.8523 94.0745 76.0392 94.0745 75.1251C94.0745 74.0973 94.0149 73.2347 93.8958 72.5372L94.8559 72.394C94.8389 72.6492 94.8185 73.3631 94.7913 74.5323H97.1509C97.1305 73.7357 97.076 73.0713 96.9875 72.5372L97.9477 72.394C97.9051 73.1374 97.883 74.0477 97.883 75.1251C97.883 75.9786 97.9085 76.7917 97.9579 77.5626Z" fill="#1E1919"/>
<path d="M103.316 77.5626H102.43C102.48 76.955 102.505 76.142 102.505 75.1251C102.505 74.837 102.522 74.4057 102.555 73.8293H102.505C102.435 74.0753 101.986 74.7195 101.155 75.7657C100.367 76.7642 99.9719 77.3643 99.9719 77.5626H99.2688C99.3147 76.8523 99.3386 76.0392 99.3386 75.1251C99.3386 74.0973 99.2807 73.2347 99.1649 72.5372L100.144 72.394C100.101 73.0511 100.079 73.8899 100.079 74.9067C100.079 75.2665 100.069 75.7216 100.05 76.2723H100.1C100.176 76.0483 100.624 75.4041 101.446 74.3414C102.217 73.343 102.604 72.7409 102.604 72.539L103.307 72.3959C103.268 73.1392 103.247 74.0496 103.247 75.127C103.247 75.9804 103.271 76.7935 103.317 77.5644L103.316 77.5626Z" fill="#1E1919"/>
<path d="M109.114 76.8798C109.114 77.0615 109.077 77.4965 109 78.1848C108.924 78.873 108.886 79.4035 108.886 79.7779H108.323C108.323 79.3264 108.317 78.5885 108.307 77.5644H104.626C104.676 76.8541 104.701 76.041 104.701 75.127C104.701 74.0991 104.642 73.2365 104.523 72.539L105.517 72.3959C105.474 73.1392 105.452 74.0496 105.452 75.127C105.452 75.5601 105.445 76.1456 105.432 76.8816H107.529C107.516 76.164 107.509 75.5785 107.509 75.127C107.509 74.0991 107.451 73.2365 107.335 72.539L108.314 72.3959C108.275 73.1392 108.254 74.0496 108.254 75.127C108.254 75.7271 108.272 76.3126 108.304 76.8816H109.111L109.114 76.8798Z" fill="#1E1919"/>
<path d="M114.087 77.5626H113.202C113.251 76.955 113.277 76.142 113.277 75.1251C113.277 74.837 113.294 74.4057 113.326 73.8293H113.277C113.207 74.0753 112.758 74.7195 111.927 75.7657C111.139 76.7642 110.744 77.3643 110.744 77.5626H110.04C110.086 76.8523 110.11 76.0392 110.11 75.1251C110.11 74.0973 110.052 73.2347 109.937 72.5372L110.916 72.394C110.873 73.0511 110.851 73.8899 110.851 74.9067C110.851 75.2665 110.841 75.7216 110.822 76.2723H110.871C110.948 76.0483 111.396 75.4041 112.218 74.3414C112.989 73.343 113.376 72.7409 113.376 72.539L114.079 72.3959C114.04 73.1392 114.019 74.0496 114.019 75.127C114.019 75.9804 114.043 76.7935 114.089 77.5644L114.087 77.5626Z" fill="#1E1919"/>
<path d="M121.401 77.5626H120.521C120.567 76.8523 120.591 76.0392 120.591 75.1251C120.591 74.5745 120.587 73.9248 120.581 73.1778H118.413C118.406 73.7724 118.403 74.4203 118.403 75.1251C118.403 75.9786 118.429 76.7917 118.478 77.5626H117.598C117.647 76.8523 117.673 76.0392 117.673 75.1251C117.673 74.0973 117.613 73.2347 117.494 72.5372L118.469 72.495H120.707L121.394 72.394C121.352 73.1374 121.33 74.0477 121.33 75.1251C121.33 75.9786 121.355 76.7917 121.405 77.5626H121.401Z" fill="#1E1919"/>
<path d="M127.229 74.8737C127.229 75.7841 126.987 76.4944 126.502 77.0046C126.017 77.5148 125.446 77.77 124.789 77.77C124.176 77.77 123.648 77.5442 123.208 77.0927C122.767 76.6412 122.547 76.0043 122.547 75.1839C122.547 74.2662 122.79 73.5504 123.277 73.0346C123.764 72.5189 124.335 72.2619 124.992 72.2619C125.605 72.2619 126.131 72.4913 126.57 72.9483C127.009 73.4054 127.229 74.0478 127.229 74.8774V74.8737ZM126.372 75.0609C126.372 74.5066 126.243 74.0129 125.984 73.5816C125.725 73.1502 125.356 72.9337 124.878 72.9337C124.399 72.9337 124.037 73.1374 123.781 73.5467C123.526 73.956 123.398 74.4314 123.398 74.971C123.398 75.5106 123.528 76.0245 123.786 76.454C124.045 76.8835 124.416 77.1 124.896 77.1C125.376 77.1 125.736 76.8945 125.989 76.4833C126.243 76.0722 126.371 75.5987 126.371 75.0609H126.372Z" fill="#1E1919"/>
<path d="M133.676 72.495L133.647 73.3173C133.07 73.2567 132.272 73.2273 131.252 73.2273C131.269 73.9413 131.277 74.5745 131.277 75.127C131.277 75.9804 131.301 76.7935 131.347 77.5644H130.467C130.516 76.8541 130.542 76.041 130.542 75.127C130.542 74.0991 130.516 73.2218 130.467 72.4968H133.678L133.676 72.495Z" fill="#1E1919"/>
<path d="M138.486 74.4314C138.486 74.58 138.479 74.7874 138.465 75.0499L135.065 75.1141C135.098 75.6336 135.285 76.0685 135.624 76.4191C135.964 76.7697 136.414 76.944 136.974 76.944C137.474 76.944 137.946 76.878 138.383 76.7458L138.3 77.4983C137.977 77.6378 137.51 77.7057 136.901 77.7057C136.043 77.7057 135.389 77.4524 134.939 76.9477C134.49 76.443 134.263 75.8281 134.263 75.1013C134.263 74.3267 134.469 73.6587 134.88 73.0989C135.29 72.5391 135.842 72.2582 136.535 72.2582C137.171 72.2582 137.655 72.4601 137.987 72.8658C138.319 73.2714 138.484 73.7926 138.484 74.4277L138.486 74.4314ZM137.66 74.4424C137.66 73.4439 137.272 72.9428 136.497 72.9428C135.722 72.9428 135.239 73.4623 135.098 74.5011L137.66 74.4424Z" fill="#1E1919"/>
<path d="M144.116 74.8205C144.116 75.5895 143.911 76.2613 143.505 76.8394C143.098 77.4176 142.531 77.7057 141.806 77.7057C141.199 77.7057 140.799 77.5883 140.609 77.3533H140.559C140.559 78.3426 140.57 79.2236 140.588 79.9982H139.659C139.735 79.0529 139.773 77.8838 139.773 76.4944C139.773 74.7801 139.691 73.4531 139.526 72.5152L140.398 72.3812L140.472 72.9098H140.522C140.842 72.5079 141.359 72.3078 142.076 72.3078C142.706 72.3078 143.205 72.5556 143.571 73.0511C143.937 73.5467 144.121 74.1359 144.121 74.8186L144.116 74.8205ZM143.236 74.949C143.236 74.4222 143.106 73.9725 142.849 73.5963C142.592 73.2218 142.231 73.0328 141.766 73.0328C141.172 73.0328 140.747 73.2273 140.489 73.6146C140.542 74.8095 140.57 75.8355 140.57 76.6926C140.837 76.9349 141.184 77.056 141.613 77.056C142.158 77.056 142.563 76.8504 142.832 76.4375C143.101 76.0245 143.236 75.5289 143.236 74.949Z" fill="#1E1919"/>
<path d="M150.864 77.5626H150.029C150.029 76.8945 150.025 76.0649 150.018 75.0737C150.011 74.0826 150.008 73.4843 150.008 73.2732H149.943C149.858 73.543 149.668 74.0496 149.375 74.7929C148.66 76.4209 148.3 77.3441 148.3 77.5607H147.623C147.623 77.2505 147.332 76.3475 146.748 74.8517C146.61 74.4993 146.431 73.9725 146.213 73.2732H146.154C146.154 73.5045 146.13 74.1891 146.082 75.327C146.034 76.465 146.011 77.2102 146.011 77.5626H145.263C145.263 77.4598 145.325 76.7036 145.447 75.2922C145.57 73.8826 145.631 72.9502 145.631 72.495H146.838C146.838 72.9282 147.047 73.6843 147.466 74.7617C147.885 75.8391 148.094 76.4521 148.094 76.6026H148.149C148.149 76.4576 148.377 75.8483 148.832 74.7764C149.286 73.7045 149.514 72.9447 149.514 72.4968H150.692C150.692 72.952 150.721 73.8716 150.779 75.2573C150.837 76.643 150.866 77.4121 150.866 77.5644L150.864 77.5626Z" fill="#1E1919"/>
<path d="M155.892 77.5626L155.116 77.5938C155.076 77.4194 155.056 77.2542 155.056 77.0982H155.007C154.601 77.4965 154.048 77.6947 153.348 77.6947C152.969 77.6947 152.642 77.5754 152.369 77.335C152.095 77.0945 151.959 76.7531 151.959 76.309C151.959 75.762 152.174 75.3215 152.603 74.9893C153.032 74.6571 153.829 74.4809 154.993 74.4644C155.003 74.3781 155.008 74.2808 155.008 74.1707C155.008 73.7339 154.901 73.4421 154.685 73.2952C154.469 73.1502 154.142 73.0768 153.703 73.0768C153.185 73.0768 152.674 73.1466 152.174 73.2842L152.257 72.5482C152.753 72.3959 153.321 72.3188 153.965 72.3188C154.552 72.3188 155.005 72.4491 155.325 72.7116C155.645 72.9722 155.805 73.4182 155.805 74.0477C155.805 74.2148 155.798 74.5176 155.783 74.9581C155.768 75.3968 155.761 75.6904 155.761 75.8354C155.761 76.4833 155.805 77.0578 155.894 77.5644L155.892 77.5626ZM155.017 76.5274C155 75.9878 154.991 75.5014 154.991 75.0719C154.372 75.0719 153.9 75.1215 153.577 75.2206C153.035 75.3986 152.764 75.7382 152.764 76.2392C152.764 76.7403 153.081 76.9642 153.714 76.9642C154.259 76.9642 154.692 76.8192 155.015 76.5274H155.017Z" fill="#1E1919"/>
<path d="M161.107 77.5626H160.24C160.283 76.8835 160.306 76.1016 160.31 75.2151H157.94C157.94 76.0116 157.966 76.7935 158.015 77.5626H157.148C157.198 76.8523 157.223 76.0392 157.223 75.1251C157.223 74.0973 157.164 73.2347 157.044 72.5372L158.005 72.394C157.988 72.6492 157.967 73.3631 157.94 74.5323H160.3C160.279 73.7357 160.225 73.0713 160.136 72.5372L161.096 72.394C161.054 73.1374 161.032 74.0477 161.032 75.1251C161.032 75.9786 161.057 76.7917 161.107 77.5626Z" fill="#1E1919"/>
<path d="M166.015 76.7458L165.966 77.4616C165.698 77.625 165.341 77.7076 164.891 77.7076C164.037 77.7076 163.385 77.4524 162.932 76.944C162.481 76.4356 162.254 75.8226 162.254 75.1031C162.254 74.3414 162.492 73.688 162.967 73.1411C163.442 72.5941 164.071 72.3188 164.852 72.3188C165.245 72.3188 165.565 72.361 165.812 72.4473L165.679 73.2842C165.334 73.1447 164.981 73.0768 164.626 73.0768C164.157 73.0768 163.785 73.253 163.507 73.6054C163.23 73.9578 163.092 74.3983 163.092 74.9287C163.092 75.5051 163.257 75.9841 163.587 76.3695C163.917 76.7531 164.384 76.9459 164.987 76.9459C165.233 76.9459 165.577 76.8798 166.015 76.7476V76.7458Z" fill="#1E1919"/>
<path d="M170.973 77.5626H170.077C170.05 77.513 170.011 77.4194 169.958 77.2854C169.747 76.5421 169.52 76.0263 169.28 75.7382C169.04 75.45 168.724 75.3068 168.33 75.3068C168.196 75.3068 168.02 75.3105 167.806 75.3178C167.806 76.1401 167.831 76.8871 167.881 77.5626H166.996C167.045 76.8523 167.07 76.0392 167.07 75.1251C167.07 74.0973 167.011 73.2347 166.892 72.5372L167.871 72.394C167.828 73.0768 167.806 73.833 167.806 74.6608C168.003 74.6681 168.179 74.6718 168.33 74.6718C169.062 74.6718 169.577 74.0276 169.874 72.7409C169.895 72.6583 169.931 72.5776 169.983 72.495H170.801C170.768 72.5776 170.712 72.7281 170.632 72.9483C170.256 74.0606 169.834 74.714 169.365 74.9067V74.9599C169.679 75.0591 169.941 75.2683 170.15 75.584C170.36 75.8997 170.562 76.364 170.756 76.9771C170.816 77.1661 170.889 77.3607 170.974 77.5644L170.973 77.5626Z" fill="#1E1919"/>
<path d="M175.985 77.5626H175.099C175.149 76.955 175.174 76.142 175.174 75.1251C175.174 74.837 175.191 74.4057 175.224 73.8293H175.174C175.104 74.0753 174.655 74.7195 173.824 75.7657C173.036 76.7642 172.641 77.3643 172.641 77.5626H171.938C171.984 76.8523 172.008 76.0392 172.008 75.1251C172.008 74.0973 171.95 73.2347 171.834 72.5372L172.813 72.394C172.77 73.0511 172.748 73.8899 172.748 74.9067C172.748 75.2665 172.738 75.7216 172.719 76.2723H172.769C172.845 76.0483 173.293 75.4041 174.115 74.3414C174.887 73.343 175.273 72.7409 175.273 72.539L175.976 72.3959C175.937 73.1392 175.917 74.0496 175.917 75.127C175.917 75.9804 175.94 76.7935 175.986 77.5644L175.985 77.5626Z" fill="#1E1919"/>
<path d="M180.384 72.383C180.328 73.4861 180.301 74.591 180.301 75.7014C180.301 75.9969 180.309 76.3861 180.328 76.8724C180.346 77.357 180.355 77.6874 180.355 77.8617C180.355 79.0107 179.95 79.7081 179.138 79.9523L178.891 79.5466C179.184 79.2805 179.366 78.996 179.436 78.6932C179.538 78.26 179.589 77.335 179.589 75.9199C179.589 74.402 179.522 73.2677 179.391 72.517L180.386 72.383H180.384ZM180.597 70.8945C180.597 71.0762 180.542 71.2341 180.433 71.3662C180.324 71.5002 180.171 71.5663 179.974 71.5663C179.805 71.5663 179.674 71.5094 179.58 71.3937C179.487 71.2781 179.439 71.1386 179.439 70.9753C179.439 70.7972 179.495 70.6431 179.608 70.5109C179.72 70.3788 179.875 70.3127 180.072 70.3127C180.234 70.3127 180.362 70.3696 180.455 70.4852C180.549 70.6008 180.597 70.7367 180.597 70.8927V70.8945Z" fill="#1E1919"/>
<path d="M185.416 77.5626L184.64 77.5938C184.601 77.4194 184.581 77.2542 184.581 77.0982H184.531C184.126 77.4965 183.573 77.6947 182.873 77.6947C182.493 77.6947 182.166 77.5754 181.894 77.335C181.62 77.0945 181.484 76.7531 181.484 76.309C181.484 75.762 181.698 75.3215 182.127 74.9893C182.556 74.6571 183.353 74.4809 184.518 74.4644C184.528 74.3781 184.533 74.2808 184.533 74.1707C184.533 73.7339 184.426 73.4421 184.209 73.2952C183.993 73.1502 183.666 73.0768 183.227 73.0768C182.709 73.0768 182.199 73.1466 181.698 73.2842L181.782 72.5482C182.277 72.3959 182.846 72.3188 183.489 72.3188C184.077 72.3188 184.529 72.4491 184.85 72.7116C185.17 72.9722 185.33 73.4182 185.33 74.0477C185.33 74.2148 185.323 74.5176 185.307 74.9581C185.292 75.3968 185.285 75.6904 185.285 75.8354C185.285 76.4833 185.33 77.0578 185.418 77.5644L185.416 77.5626ZM184.541 76.5274C184.524 75.9878 184.516 75.5014 184.516 75.0719C183.896 75.0719 183.425 75.1215 183.101 75.2206C182.56 75.3986 182.289 75.7382 182.289 76.2392C182.289 76.7403 182.606 76.9642 183.239 76.9642C183.784 76.9642 184.216 76.8192 184.54 76.5274H184.541Z" fill="#1E1919"/>
<path d="M189.977 76.0465C189.977 76.588 189.773 76.9991 189.366 77.2817C188.959 77.5644 188.486 77.7057 187.948 77.7057C187.354 77.7057 186.823 77.6323 186.355 77.4873L186.438 76.7678C186.831 76.9459 187.333 77.034 187.946 77.034C188.781 77.034 189.198 76.7421 189.198 76.1585C189.198 75.5748 188.701 75.2683 187.708 75.2683C187.408 75.2683 187.126 75.2793 186.862 75.2995L186.945 74.5947C187.216 74.6167 187.478 74.6259 187.732 74.6259C188.619 74.6259 189.063 74.3322 189.063 73.7467C189.063 73.2732 188.673 73.0364 187.895 73.0364C187.357 73.0364 186.891 73.1099 186.496 73.2549L186.579 72.5446C186.995 72.3922 187.468 72.3151 187.999 72.3151C189.203 72.3151 189.806 72.7079 189.806 73.4935C189.806 74.0845 189.552 74.4956 189.043 74.7305V74.7838C189.271 74.8296 189.47 74.9453 189.642 75.1306C189.863 75.3692 189.974 75.6739 189.974 76.0428L189.977 76.0465Z" fill="#1E1919"/>
<path d="M195.163 77.5626H194.278C194.327 76.955 194.353 76.142 194.353 75.1251C194.353 74.837 194.37 74.4057 194.402 73.8293H194.353C194.283 74.0753 193.834 74.7195 193.003 75.7657C192.215 76.7642 191.82 77.3643 191.82 77.5626H191.116C191.162 76.8523 191.186 76.0392 191.186 75.1251C191.186 74.0973 191.128 73.2347 191.013 72.5372L191.992 72.394C191.949 73.0511 191.927 73.8899 191.927 74.9067C191.927 75.2665 191.917 75.7216 191.898 76.2723H191.947C192.024 76.0483 192.472 75.4041 193.294 74.3414C194.065 73.343 194.452 72.7409 194.452 72.539L195.155 72.3959C195.116 73.1392 195.095 74.0496 195.095 75.127C195.095 75.9804 195.119 76.7935 195.165 77.5644L195.163 77.5626Z" fill="#1E1919"/>
<path d="M200.453 77.5626H199.557C199.53 77.513 199.491 77.4194 199.438 77.2854C199.227 76.5421 199.001 76.0263 198.761 75.7382C198.521 75.45 198.204 75.3068 197.811 75.3068C197.676 75.3068 197.501 75.3105 197.286 75.3178C197.286 76.1401 197.312 76.8871 197.361 77.5626H196.476C196.525 76.8523 196.551 76.0392 196.551 75.1251C196.551 74.0973 196.491 73.2347 196.372 72.5372L197.351 72.394C197.308 73.0768 197.286 73.833 197.286 74.6608C197.484 74.6681 197.659 74.6718 197.811 74.6718C198.543 74.6718 199.057 74.0276 199.355 72.7409C199.375 72.6583 199.411 72.5776 199.464 72.495H200.281C200.249 72.5776 200.192 72.7281 200.112 72.9483C199.736 74.0606 199.314 74.714 198.846 74.9067V74.9599C199.159 75.0591 199.421 75.2683 199.631 75.584C199.84 75.8997 200.043 76.364 200.237 76.9771C200.296 77.1661 200.369 77.3607 200.455 77.5644L200.453 77.5626Z" fill="#1E1919"/>
<path d="M7.88253 65.2047H6.40136C6.40136 64.5825 6.36561 63.5327 6.29411 62.057C6.2226 60.5795 6.18515 59.6581 6.18174 59.2929H6.10513C6.07108 59.5131 5.98085 59.9187 5.83443 60.5116C5.68802 61.1044 5.41392 61.9781 5.01213 63.1325C4.61034 64.287 4.40945 64.9771 4.40945 65.2047H3.2841C3.2841 64.9698 3.09172 64.2742 2.70696 63.1123C2.3222 61.9524 2.07023 61.1393 1.95105 60.6749C1.83188 60.2106 1.73654 59.7499 1.66674 59.291H1.59013C1.58672 59.748 1.54586 60.73 1.46584 62.2332C1.38583 63.7382 1.34667 64.7275 1.34667 65.2029H0C0 65.0928 0.122579 63.9933 0.36944 61.9028C0.616301 59.8123 0.738881 58.5312 0.738881 58.054H2.70866C2.70866 58.4633 2.91637 59.3681 3.33177 60.7667C3.74718 62.1653 3.95488 63.0591 3.95488 63.4519H4.0315C4.0315 63.0573 4.26814 62.1598 4.74143 60.7612C5.21473 59.3626 5.45137 58.4614 5.45137 58.054H7.40753C7.40753 58.812 7.48585 60.1628 7.64418 62.1084C7.80251 64.0539 7.88083 65.0854 7.88083 65.201L7.88253 65.2047Z" fill="#1E1919"/>
<path d="M14.1528 65.1993L12.9508 65.2433C12.8963 65.0891 12.8691 64.9515 12.8691 64.8267H12.8027C12.4298 65.1699 11.9259 65.3424 11.2909 65.3424C10.867 65.3424 10.5145 65.2158 10.2336 64.9607C9.95271 64.7055 9.81311 64.3678 9.81311 63.9475C9.81311 63.3914 10.031 62.9362 10.4669 62.5801C10.9027 62.2259 11.6671 62.0368 12.7601 62.0148C12.7669 61.9487 12.7703 61.8863 12.7703 61.8276C12.7703 61.433 12.6818 61.1724 12.5047 61.0457C12.3277 60.9191 12.0042 60.8567 11.5326 60.8567C11.0202 60.8567 10.5196 60.9301 10.031 61.0769L10.1434 60.0674C10.6048 59.8949 11.2568 59.8087 12.0996 59.8087C12.7142 59.8087 13.1891 59.9481 13.5228 60.2253C13.8565 60.5043 14.0251 60.9907 14.0251 61.6863C14.0251 61.8405 14.0183 62.1194 14.008 62.5269C13.9961 62.9325 13.991 63.2042 13.991 63.34C13.991 64.098 14.0455 64.7184 14.1545 65.2011L14.1528 65.1993ZM12.7925 64.0576C12.772 63.5639 12.7618 63.1381 12.7618 62.7784C11.6041 62.7784 11.0253 63.094 11.0253 63.7273C11.0253 64.1622 11.2807 64.3807 11.7897 64.3807C12.1898 64.3807 12.5252 64.2724 12.7925 64.0576Z" fill="#1E1919"/>
<path d="M19.7506 64.1072L19.7251 65.2048H15.8757L15.9472 64.1567C16.1175 63.9915 16.5159 63.4831 17.1441 62.6315C17.8166 61.7193 18.152 61.1981 18.152 61.0677V60.9796C17.3433 60.9796 16.601 61.0108 15.9217 61.0732L15.9472 59.9922H19.6433L19.5667 61.0457C19.3522 61.299 18.9709 61.8111 18.421 62.582C17.7791 63.4831 17.459 63.9989 17.459 64.1292V64.2118C18.2303 64.2118 18.993 64.1769 19.7506 64.1072Z" fill="#1E1919"/>
<path d="M25.9647 62.0368C25.9647 62.224 25.9545 62.4663 25.9341 62.7673L22.6551 62.8279C22.7028 63.2409 22.8679 63.5859 23.1488 63.8594C23.4297 64.1347 23.8009 64.2705 24.2588 64.2705C24.7679 64.2705 25.3093 64.1879 25.883 64.0227L25.7809 65.0873C25.3127 65.2708 24.7321 65.3626 24.0392 65.3626C23.1641 65.3626 22.4916 65.0983 22.0252 64.566C21.5587 64.0356 21.3254 63.3969 21.3254 62.6499C21.3254 61.9028 21.5468 61.1944 21.9894 60.6217C22.4321 60.0491 23.0484 59.7628 23.8349 59.7628C24.5551 59.7628 25.0896 59.9738 25.4387 60.3941C25.7877 60.8144 25.963 61.3614 25.963 62.035L25.9647 62.0368ZM24.773 61.9873C24.773 61.1448 24.441 60.7245 23.7753 60.7245C23.1096 60.7245 22.764 61.1595 22.6449 62.0313L24.773 61.9873Z" fill="#1E1919"/>
<path d="M32.4835 65.1993L31.2764 65.2433C31.2526 65.1148 31.2407 64.9808 31.2407 64.8432H31.164C30.7912 65.1901 30.3145 65.3644 29.7339 65.3644C29.0819 65.3644 28.5643 65.1093 28.1813 64.6009C27.7982 64.0925 27.6058 63.4887 27.6058 62.7894C27.6058 61.9873 27.8152 61.2898 28.2324 60.6952C28.6495 60.1005 29.23 59.8031 29.974 59.8031C30.4558 59.8031 30.8167 59.9004 31.0585 60.095H31.13C31.13 59.2323 31.0908 58.3623 31.0125 57.4869L32.4528 57.4428C32.3983 58.2963 32.3711 59.5223 32.3711 61.121C32.3711 62.7196 32.4086 64.1017 32.4835 65.1993ZM31.2049 63.953C31.2049 62.7857 31.1794 61.8203 31.1283 61.0549C30.8933 60.8787 30.6141 60.7906 30.289 60.7906C29.8412 60.7906 29.5075 60.9705 29.2913 61.3284C29.0734 61.6863 28.9661 62.1268 28.9661 62.6462C28.9661 63.1069 29.0717 63.5052 29.2811 63.841C29.4922 64.1751 29.7833 64.344 30.1562 64.344C30.655 64.344 31.004 64.2136 31.2049 63.9548V63.953Z" fill="#1E1919"/>
<path d="M39.4059 62.4755C39.4059 63.3968 39.142 64.1182 38.6159 64.6376C38.0898 65.157 37.4701 65.4176 36.7568 65.4176C36.0434 65.4176 35.4952 65.1809 35.01 64.7073C34.5248 64.2338 34.2814 63.5657 34.2814 62.7067C34.2814 61.7817 34.547 61.0567 35.0764 60.5336C35.6059 60.0105 36.2273 59.748 36.9407 59.748C37.6165 59.748 38.1954 59.9866 38.6789 60.4639C39.1624 60.9411 39.4042 61.6128 39.4042 62.4755H39.4059ZM38.0762 62.6407C38.0762 62.1102 37.9605 61.6642 37.7306 61.3045C37.4991 60.9447 37.1994 60.763 36.83 60.763C36.4606 60.763 36.1779 60.9319 35.9515 61.2678C35.7251 61.6036 35.6127 62.0258 35.6127 62.5305C35.6127 63.061 35.7285 63.507 35.9583 63.8667C36.1899 64.2264 36.4895 64.4082 36.8589 64.4082C37.2284 64.4082 37.511 64.2393 37.7374 63.9034C37.9639 63.5675 38.0762 63.1454 38.0762 62.6407Z" fill="#1E1919"/>
<path d="M45.8634 65.2048H44.5082C44.5831 64.2797 44.6206 63.3418 44.6206 62.3948C44.6206 61.8203 44.5423 61.4312 44.3839 61.2256C44.2256 61.02 43.9855 60.9191 43.6638 60.9191C43.2773 60.9191 42.9096 61.0622 42.564 61.3467C42.581 62.7747 42.5895 64.0613 42.5895 65.2066H41.219C41.2803 64.0613 41.3109 63.1601 41.3109 62.5049C41.3109 61.6294 41.2275 60.8053 41.0607 60.0289L42.3648 59.8747L42.4516 60.4566H42.5333C42.9981 60.0252 43.5327 59.8087 44.1371 59.8087C44.6597 59.8087 45.0785 59.9408 45.3918 60.2069C45.7051 60.4731 45.8634 60.9613 45.8634 61.6753C45.8634 61.7817 45.8583 61.9231 45.8498 62.1011C45.8413 62.2791 45.8379 62.4608 45.8379 62.648C45.8379 63.1418 45.8464 63.9952 45.8634 65.2066V65.2048Z" fill="#1E1919"/>
<path d="M49.379 65.2048H48.0085C48.0562 64.4467 48.08 63.5786 48.08 62.5966C48.08 61.6147 48.0221 60.7704 47.9064 60.0381L49.3722 59.8784C49.3279 60.5887 49.3058 61.4936 49.3058 62.5966C49.3058 63.5364 49.3297 64.4064 49.3773 65.2048H49.379ZM49.614 58.3312C49.614 58.5808 49.5357 58.7973 49.3773 58.9846C49.219 59.1718 48.9994 59.2654 48.7185 59.2654C48.4801 59.2654 48.2945 59.1846 48.16 59.0231C48.0255 58.8616 47.9591 58.6689 47.9591 58.4413C47.9591 58.1917 48.0375 57.9769 48.1958 57.7934C48.3541 57.6098 48.5754 57.5181 48.8598 57.5181C49.1015 57.5181 49.2871 57.597 49.4182 57.7567C49.5493 57.9163 49.614 58.1072 49.614 58.3312Z" fill="#1E1919"/>
<path d="M54.9308 63.7052C54.9308 64.8028 54.1766 65.3516 52.6699 65.3516C52.12 65.3516 51.6399 65.2873 51.2296 65.1589L51.4033 64.0778C51.8272 64.243 52.2494 64.3256 52.6716 64.3256C53.0938 64.3256 53.3611 64.2889 53.5195 64.2155C53.6778 64.142 53.7561 64.0191 53.7561 63.8484C53.7561 63.5804 53.4701 63.3271 52.8998 63.0848C52.4009 62.8719 52.0366 62.6645 51.8102 62.459C51.4986 62.1726 51.342 61.8239 51.342 61.4109C51.342 60.9246 51.5105 60.5318 51.8459 60.2363C52.1813 59.9408 52.6716 59.7921 53.3118 59.7921C53.9127 59.7921 54.3843 59.849 54.7265 59.9628L54.5529 61.0494C54.1698 60.8879 53.7544 60.8071 53.3101 60.8071C52.767 60.8071 52.4946 60.9576 52.4946 61.2568C52.4946 61.4109 52.5524 61.5339 52.6682 61.6275C52.784 61.7211 53.0189 61.8386 53.3765 61.9818C53.8685 62.1763 54.226 62.3745 54.4507 62.5801C54.7691 62.8738 54.9291 63.2482 54.9291 63.7052H54.9308Z" fill="#1E1919"/>
<path d="M60.6359 64.0521L60.5491 65.1001C60.2409 65.2763 59.8204 65.3644 59.2909 65.3644C58.4159 65.3644 57.7417 65.1001 57.2718 64.5733C56.8019 64.0466 56.567 63.4134 56.567 62.6737C56.567 61.934 56.8138 61.2347 57.3058 60.6621C57.7979 60.0894 58.472 59.8031 59.3267 59.8031C59.7438 59.8031 60.1166 59.8545 60.4418 59.9573L60.2682 61.0769C59.9566 60.9374 59.6059 60.8676 59.2194 60.8676C58.8091 60.8676 58.484 61.0237 58.2473 61.3375C58.009 61.6514 57.8915 62.035 57.8915 62.4938C57.8915 62.9912 58.0328 63.4134 58.3137 63.7566C58.5946 64.0998 58.9947 64.2723 59.5106 64.2723C59.8119 64.2723 60.1882 64.1989 60.6359 64.0521Z" fill="#1E1919"/>
<path d="M66.9675 65.2047H65.6123C65.6872 64.2797 65.7246 63.3785 65.7246 62.503C65.7246 61.8514 65.648 61.4238 65.4948 61.2219C65.3416 61.0182 65.0913 60.9172 64.7406 60.9172C64.3712 60.9172 64.0068 61.0512 63.651 61.3173C63.651 62.8719 63.668 64.1677 63.7021 65.2047H62.3469C62.3844 64.0705 62.4031 62.7104 62.4031 61.1265C62.4031 59.6655 62.3503 58.4523 62.2448 57.4868L63.6851 57.3987C63.634 58.5771 63.6084 59.6012 63.6084 60.4731H63.6748C64.1226 60.0307 64.6351 59.8086 65.2122 59.8086C65.7587 59.8086 66.1877 59.9426 66.4976 60.2088C66.8074 60.4749 66.9641 60.9466 66.9641 61.6202C66.9641 61.6899 66.9589 61.8313 66.9504 62.046C66.9419 62.2607 66.9385 62.4021 66.9385 62.4718C66.9385 63.083 66.947 63.9952 66.9641 65.2066L66.9675 65.2047Z" fill="#1E1919"/>
<path d="M73.4608 62.0368C73.4608 62.224 73.4505 62.4663 73.4301 62.7673L70.1511 62.8279C70.1988 63.2409 70.3639 63.5859 70.6448 63.8594C70.9258 64.1347 71.2969 64.2705 71.7549 64.2705C72.2639 64.2705 72.8053 64.1879 73.379 64.0227L73.2769 65.0873C72.8087 65.2708 72.2282 65.3626 71.5352 65.3626C70.6602 65.3626 69.9877 65.0983 69.5212 64.566C69.0547 64.0356 68.8215 63.3969 68.8215 62.6499C68.8215 61.9028 69.0428 61.1944 69.4854 60.6217C69.9281 60.0491 70.5444 59.7628 71.3309 59.7628C72.0511 59.7628 72.5857 59.9738 72.9347 60.3941C73.2837 60.8144 73.4591 61.3614 73.4591 62.035L73.4608 62.0368ZM72.269 61.9873C72.269 61.1448 71.937 60.7245 71.2714 60.7245C70.6057 60.7245 70.2601 61.1595 70.1409 62.0313L72.269 61.9873Z" fill="#1E1919"/>
<path d="M78.6772 59.9904L78.3826 61.2752C78.1307 61.165 77.877 61.11 77.6182 61.11C77.1194 61.11 76.7891 61.3522 76.6308 61.8349C76.6308 63.2959 76.641 64.4192 76.6614 65.2048H75.3062C75.3641 64.1035 75.3931 63.2023 75.3931 62.503C75.3931 61.6312 75.3079 60.8071 75.1377 60.0271L76.4367 59.8729C76.4946 60.2749 76.5235 60.5116 76.5235 60.5814H76.6052C76.9168 60.0656 77.3339 59.8068 77.8532 59.8068C78.0983 59.8068 78.3724 59.8674 78.6789 59.9885L78.6772 59.9904Z" fill="#1E1919"/>
<path d="M89.2411 61.3834C89.2411 62.4222 88.9329 63.3308 88.3149 64.1071C87.6969 64.8835 86.8321 65.2708 85.7186 65.2708C85.2164 65.2708 84.5235 65.2488 83.6416 65.2047C83.6859 64.0998 83.708 62.8536 83.708 61.466C83.708 60.0784 83.6859 58.9974 83.6416 58.0576H84.532C84.6784 58.0576 84.8946 58.0521 85.1841 58.0411C85.4718 58.0301 85.6608 58.0246 85.7493 58.0246C86.9751 58.0246 87.8638 58.3531 88.4154 59.012C88.967 59.671 89.2428 60.462 89.2428 61.3834H89.2411ZM87.8502 61.6202C87.8502 60.9172 87.6595 60.3262 87.2798 59.8435C86.9002 59.3626 86.3196 59.1222 85.5382 59.1222C85.3918 59.1222 85.1926 59.1387 84.9372 59.1717C84.9712 59.9041 84.9883 60.6694 84.9883 61.466C84.9883 62.3415 85.0053 63.2078 85.0393 64.0686C85.2607 64.1163 85.4803 64.1402 85.7016 64.1402C86.432 64.1402 86.9717 63.8961 87.3241 63.4079C87.6748 62.9196 87.8519 62.3231 87.8519 61.6202H87.8502Z" fill="#1E1919"/>
<path d="M95.5624 62.0368C95.5624 62.224 95.5522 62.4663 95.5318 62.7673L92.2528 62.8279C92.3005 63.2409 92.4656 63.5859 92.7465 63.8594C93.0274 64.1347 93.3986 64.2705 93.8565 64.2705C94.3656 64.2705 94.907 64.1879 95.4807 64.0227L95.3786 65.0873C94.9104 65.2708 94.3298 65.3626 93.6369 65.3626C92.7618 65.3626 92.0894 65.0983 91.6229 64.566C91.1564 64.0356 90.9232 63.3969 90.9232 62.6499C90.9232 61.9028 91.1445 61.1944 91.5871 60.6217C92.0298 60.0491 92.6461 59.7628 93.4326 59.7628C94.1528 59.7628 94.6874 59.9738 95.0364 60.3941C95.3854 60.8144 95.5607 61.3614 95.5607 62.035L95.5624 62.0368ZM94.3707 61.9873C94.3707 61.1448 94.0387 60.7245 93.373 60.7245C92.7074 60.7245 92.3618 61.1595 92.2426 62.0313L94.3707 61.9873Z" fill="#1E1919"/>
<path d="M101.969 65.1992L100.777 65.2433C100.723 65.045 100.695 64.889 100.695 64.7716H100.614C100.169 65.1662 99.6502 65.3644 99.056 65.3644C98.4959 65.3644 98.0736 65.2066 97.791 64.889C97.5067 64.5733 97.3654 63.9401 97.3654 62.993C97.3654 62.8793 97.3688 62.7196 97.3722 62.5158C97.3756 62.3121 97.379 62.1322 97.379 61.9781C97.379 61.5724 97.3467 60.9245 97.282 60.0344L98.7019 59.9793C98.6474 60.6823 98.6201 61.3485 98.6201 61.9781C98.6201 62.8756 98.6814 63.4794 98.8057 63.7896C98.93 64.1016 99.1735 64.2558 99.5361 64.2558C99.9328 64.2558 100.277 64.153 100.564 63.9493C100.564 62.024 100.544 60.7171 100.503 60.0289L101.879 59.9793C101.845 60.6713 101.828 61.5669 101.828 62.67C101.828 63.4868 101.874 64.3292 101.966 65.201L101.969 65.1992Z" fill="#1E1919"/>
<path d="M107.012 64.1788L106.925 65.1552C106.687 65.2653 106.389 65.3204 106.029 65.3204C105.479 65.3204 105.066 65.1589 104.787 64.8377C104.507 64.5165 104.369 63.8961 104.369 62.9766C104.369 62.4241 104.373 61.7982 104.38 61.099C104.206 61.099 103.973 61.11 103.677 61.132L103.712 60.0509C103.974 60.073 104.216 60.084 104.441 60.084C104.444 59.8894 104.458 59.3792 104.482 58.5514L105.689 58.3917C105.638 59.1204 105.612 59.6839 105.612 60.0821C105.897 60.0821 106.324 60.0674 106.891 60.0381L106.85 61.1302C106.334 61.1081 105.915 61.0971 105.592 61.0971C105.585 61.5835 105.582 62.0937 105.582 62.6297C105.582 63.2813 105.643 63.7181 105.765 63.9383C105.888 64.1604 106.103 64.2705 106.412 64.2705C106.6 64.2705 106.799 64.2393 107.013 64.1769L107.012 64.1788Z" fill="#1E1919"/>
<path d="M112.177 63.7052C112.177 64.8028 111.423 65.3516 109.916 65.3516C109.366 65.3516 108.886 65.2873 108.476 65.1589L108.649 64.0778C109.073 64.243 109.496 64.3256 109.918 64.3256C110.34 64.3256 110.607 64.2889 110.766 64.2155C110.924 64.142 111.002 64.0191 111.002 63.8484C111.002 63.5804 110.716 63.3271 110.146 63.0848C109.647 62.8719 109.283 62.6645 109.056 62.459C108.745 62.1726 108.588 61.8239 108.588 61.4109C108.588 60.9246 108.757 60.5318 109.092 60.2363C109.428 59.9408 109.918 59.7921 110.558 59.7921C111.159 59.7921 111.631 59.849 111.973 59.9628L111.799 61.0494C111.416 60.8879 111.001 60.8071 110.556 60.8071C110.013 60.8071 109.741 60.9576 109.741 61.2568C109.741 61.4109 109.799 61.5339 109.914 61.6275C110.03 61.7211 110.265 61.8386 110.623 61.9818C111.115 62.1763 111.472 62.3745 111.697 62.5801C112.015 62.8738 112.175 63.2482 112.175 63.7052H112.177Z" fill="#1E1919"/>
<path d="M117.882 64.0521L117.795 65.1001C117.487 65.2763 117.067 65.3644 116.537 65.3644C115.662 65.3644 114.988 65.1001 114.518 64.5733C114.048 64.0466 113.813 63.4134 113.813 62.6737C113.813 61.934 114.06 61.2347 114.552 60.6621C115.044 60.0894 115.718 59.8031 116.573 59.8031C116.99 59.8031 117.363 59.8545 117.688 59.9573L117.514 61.0769C117.203 60.9374 116.852 60.8676 116.466 60.8676C116.055 60.8676 115.73 61.0237 115.494 61.3375C115.255 61.6514 115.138 62.035 115.138 62.4938C115.138 62.9912 115.279 63.4134 115.56 63.7566C115.841 64.0998 116.241 64.2723 116.757 64.2723C117.058 64.2723 117.434 64.1989 117.882 64.0521Z" fill="#1E1919"/>
<path d="M124.214 65.2047H122.858C122.933 64.2797 122.971 63.3785 122.971 62.503C122.971 61.8514 122.894 61.4238 122.741 61.2219C122.588 61.02 122.338 60.9172 121.987 60.9172C121.617 60.9172 121.253 61.0512 120.897 61.3173C120.897 62.8719 120.914 64.1677 120.948 65.2047H119.593C119.631 64.0705 119.649 62.7104 119.649 61.1265C119.649 59.6655 119.597 58.4523 119.491 57.4868L120.931 57.3987C120.88 58.5771 120.855 59.6012 120.855 60.4731H120.921C121.369 60.0307 121.881 59.8086 122.458 59.8086C123.005 59.8086 123.434 59.9426 123.744 60.2088C124.054 60.4767 124.21 60.9466 124.21 61.6202C124.21 61.6899 124.205 61.8313 124.197 62.046C124.188 62.2607 124.185 62.4021 124.185 62.4718C124.185 63.083 124.193 63.9952 124.21 65.2066L124.214 65.2047Z" fill="#1E1919"/>
<path d="M127.804 65.2047H126.413C126.464 63.9493 126.49 62.5893 126.49 61.1265C126.49 59.6636 126.437 58.4853 126.332 57.4868L127.802 57.3987C127.751 58.4339 127.726 59.6765 127.726 61.1265C127.726 62.5764 127.751 63.9567 127.802 65.2047H127.804Z" fill="#1E1919"/>
<path d="M134.335 62.0368C134.335 62.224 134.325 62.4663 134.304 62.7673L131.025 62.8279C131.073 63.2409 131.238 63.5859 131.519 63.8594C131.8 64.1347 132.171 64.2705 132.629 64.2705C133.138 64.2705 133.68 64.1879 134.253 64.0227L134.151 65.0873C133.683 65.2708 133.102 65.3626 132.409 65.3626C131.534 65.3626 130.862 65.0983 130.395 64.566C129.929 64.0356 129.696 63.3969 129.696 62.6499C129.696 61.9028 129.917 61.1944 130.36 60.6217C130.802 60.0491 131.419 59.7628 132.205 59.7628C132.925 59.7628 133.46 59.9738 133.809 60.3941C134.158 60.8144 134.333 61.3614 134.333 62.035L134.335 62.0368ZM133.143 61.9873C133.143 61.1448 132.811 60.7245 132.146 60.7245C131.48 60.7245 131.134 61.1595 131.015 62.0313L133.143 61.9873Z" fill="#1E1919"/>
<path d="M140.793 65.2047H139.437C139.512 64.2797 139.55 63.3785 139.55 62.503C139.55 61.8514 139.473 61.4238 139.32 61.2219C139.167 61.02 138.916 60.9172 138.566 60.9172C138.196 60.9172 137.832 61.0512 137.476 61.3173C137.476 62.8719 137.493 64.1677 137.527 65.2047H136.172C136.209 64.0705 136.228 62.7104 136.228 61.1265C136.228 59.6655 136.175 58.4523 136.07 57.4868L137.51 57.3987C137.459 58.5771 137.434 59.6012 137.434 60.4731H137.5C137.948 60.0307 138.46 59.8086 139.037 59.8086C139.584 59.8086 140.013 59.9426 140.323 60.2088C140.632 60.4767 140.789 60.9466 140.789 61.6202C140.789 61.6899 140.784 61.8313 140.776 62.046C140.767 62.2607 140.764 62.4021 140.764 62.4718C140.764 63.083 140.772 63.9952 140.789 65.2066L140.793 65.2047Z" fill="#1E1919"/>
<path d="M146.222 59.9904L145.927 61.2752C145.675 61.165 145.422 61.11 145.163 61.11C144.664 61.11 144.334 61.3522 144.175 61.8349C144.175 63.2959 144.186 64.4192 144.206 65.2048H142.851C142.909 64.1035 142.938 63.2023 142.938 62.503C142.938 61.6312 142.852 60.8071 142.682 60.0271L143.981 59.8729C144.039 60.2749 144.068 60.5116 144.068 60.5814H144.15C144.461 60.0656 144.878 59.8068 145.398 59.8068C145.643 59.8068 145.917 59.8674 146.223 59.9885L146.222 59.9904Z" fill="#1E1919"/>
<path d="M152.243 62.0368C152.243 62.224 152.233 62.4663 152.213 62.7673L148.934 62.8279C148.982 63.2409 149.147 63.5859 149.428 63.8594C149.708 64.1347 150.08 64.2705 150.538 64.2705C151.047 64.2705 151.588 64.1879 152.162 64.0227L152.06 65.0873C151.591 65.2708 151.011 65.3626 150.318 65.3626C149.443 65.3626 148.77 65.0983 148.304 64.566C147.837 64.0356 147.604 63.3969 147.604 62.6499C147.604 61.9028 147.826 61.1944 148.268 60.6217C148.711 60.0491 149.327 59.7628 150.114 59.7628C150.834 59.7628 151.368 59.9738 151.717 60.3941C152.066 60.8144 152.242 61.3614 152.242 62.035L152.243 62.0368ZM151.052 61.9873C151.052 61.1448 150.72 60.7245 150.054 60.7245C149.388 60.7245 149.043 61.1595 148.924 62.0313L151.052 61.9873Z" fill="#1E1919"/>
<path d="M157.458 59.9904L157.164 61.2752C156.912 61.165 156.658 61.11 156.399 61.11C155.9 61.11 155.57 61.3522 155.412 61.8349C155.412 63.2959 155.422 64.4192 155.442 65.2048H154.087C154.145 64.1035 154.174 63.2023 154.174 62.503C154.174 61.6312 154.089 60.8071 153.919 60.0271L155.218 59.8729C155.276 60.2749 155.305 60.5116 155.305 60.5814H155.386C155.698 60.0656 156.115 59.8068 156.634 59.8068C156.879 59.8068 157.153 59.8674 157.46 59.9885L157.458 59.9904Z" fill="#1E1919"/>
<path d="M163.459 59.9904C163.459 60.2033 163.156 61.0714 162.549 62.5985C161.941 64.1237 161.638 64.9937 161.638 65.2066H160.247C160.247 64.9717 159.976 64.0815 159.436 62.5361C158.897 60.9907 158.626 60.1409 158.626 59.9922H160.112C160.112 60.1574 160.279 60.7924 160.615 61.8992C160.948 63.0059 161.117 63.6575 161.117 63.8502H161.183C161.183 63.674 161.343 63.0592 161.662 62.0056C161.98 60.9521 162.14 60.2804 162.14 59.9904H163.459Z" fill="#1E1919"/>
<path d="M169.52 62.0368C169.52 62.224 169.51 62.4663 169.49 62.7673L166.211 62.8279C166.258 63.2409 166.424 63.5859 166.704 63.8594C166.985 64.1347 167.356 64.2705 167.814 64.2705C168.323 64.2705 168.865 64.1879 169.439 64.0227L169.336 65.0873C168.868 65.2708 168.288 65.3626 167.595 65.3626C166.72 65.3626 166.047 65.0983 165.581 64.566C165.114 64.0356 164.881 63.3969 164.881 62.6499C164.881 61.9028 165.102 61.1944 165.545 60.6217C165.988 60.0491 166.604 59.7628 167.391 59.7628C168.111 59.7628 168.645 59.9738 168.994 60.3941C169.343 60.8144 169.519 61.3614 169.519 62.035L169.52 62.0368ZM168.329 61.9873C168.329 61.1448 167.997 60.7245 167.331 60.7245C166.665 60.7245 166.32 61.1595 166.2 62.0313L168.329 61.9873Z" fill="#1E1919"/>
<path d="M174.737 59.9904L174.442 61.2752C174.19 61.165 173.937 61.11 173.678 61.11C173.179 61.11 172.849 61.3522 172.69 61.8349C172.69 63.2959 172.701 64.4192 172.721 65.2048H171.366C171.424 64.1035 171.453 63.2023 171.453 62.503C171.453 61.6312 171.368 60.8071 171.197 60.0271L172.496 59.8729C172.554 60.2749 172.583 60.5116 172.583 60.5814H172.665C172.976 60.0656 173.393 59.8068 173.913 59.8068C174.158 59.8068 174.432 59.8674 174.738 59.9885L174.737 59.9904Z" fill="#1E1919"/>
<path d="M181.199 62.3727C181.199 63.1674 180.988 63.8649 180.568 64.4651C180.147 65.0652 179.568 65.3644 178.831 65.3644C178.288 65.3644 177.905 65.2396 177.68 64.9918H177.614L177.512 65.2066H176.315C176.359 63.9218 176.381 62.5617 176.381 61.1283C176.381 59.7774 176.325 58.5642 176.213 57.4887L177.674 57.4006C177.64 58.254 177.622 59.2176 177.622 60.2932H177.684C178.026 59.9683 178.491 59.805 179.075 59.805C179.727 59.805 180.243 60.0583 180.626 60.5648C181.007 61.0714 181.198 61.6752 181.198 62.3745L181.199 62.3727ZM179.844 62.5159C179.844 62.0588 179.737 61.6624 179.521 61.3265C179.305 60.9925 179.008 60.8236 178.632 60.8236C178.164 60.8236 177.82 60.9723 177.604 61.2678C177.604 62.5195 177.629 63.4611 177.68 64.0943C177.895 64.2742 178.171 64.3641 178.511 64.3641C178.962 64.3641 179.298 64.1843 179.517 63.8227C179.737 63.4629 179.846 63.0261 179.846 62.514L179.844 62.5159Z" fill="#1E1919"/>
<path d="M187.199 65.1993L185.997 65.2433C185.943 65.0891 185.915 64.9515 185.915 64.8267H185.849C185.476 65.1699 184.972 65.3424 184.337 65.3424C183.913 65.3424 183.561 65.2158 183.28 64.9607C182.999 64.7055 182.859 64.3678 182.859 63.9475C182.859 63.3914 183.077 62.9362 183.513 62.5801C183.949 62.2259 184.713 62.0368 185.806 62.0148C185.813 61.9487 185.817 61.8863 185.817 61.8276C185.817 61.433 185.728 61.1724 185.551 61.0457C185.374 60.9191 185.05 60.8567 184.579 60.8567C184.066 60.8567 183.566 60.9301 183.077 61.0769L183.19 60.0674C183.651 59.8949 184.303 59.8087 185.146 59.8087C185.76 59.8087 186.235 59.9481 186.569 60.2253C186.903 60.5043 187.071 60.9907 187.071 61.6863C187.071 61.8405 187.064 62.1194 187.054 62.5269C187.042 62.9325 187.037 63.2042 187.037 63.34C187.037 64.098 187.092 64.7184 187.201 65.2011L187.199 65.1993ZM185.839 64.0576C185.818 63.5639 185.808 63.1381 185.808 62.7784C184.65 62.7784 184.071 63.094 184.071 63.7273C184.071 64.1622 184.327 64.3807 184.836 64.3807C185.236 64.3807 185.571 64.2724 185.839 64.0576Z" fill="#1E1919"/>
<path d="M193.72 65.2048H192.364C192.439 64.2797 192.477 63.3418 192.477 62.3948C192.477 61.8203 192.398 61.4312 192.24 61.2256C192.082 61.02 191.842 60.9191 191.52 60.9191C191.133 60.9191 190.766 61.0622 190.42 61.3467C190.437 62.7747 190.446 64.0613 190.446 65.2066H189.075C189.136 64.0613 189.167 63.1601 189.167 62.5049C189.167 61.6294 189.084 60.8053 188.917 60.0289L190.221 59.8747L190.308 60.4566H190.389C190.854 60.0252 191.389 59.8087 191.993 59.8087C192.516 59.8087 192.935 59.9408 193.248 60.2069C193.561 60.4731 193.72 60.9613 193.72 61.6753C193.72 61.7817 193.714 61.9231 193.706 62.1011C193.697 62.2791 193.694 62.4608 193.694 62.648C193.694 63.1418 193.703 63.9952 193.72 65.2066V65.2048Z" fill="#1E1919"/>
<path d="M200.453 65.1993L199.246 65.2433C199.222 65.1148 199.21 64.9808 199.21 64.8432H199.133C198.761 65.1901 198.284 65.3644 197.703 65.3644C197.051 65.3644 196.534 65.1093 196.151 64.6009C195.768 64.0925 195.575 63.4887 195.575 62.7894C195.575 61.9873 195.785 61.2898 196.202 60.6952C196.619 60.1005 197.199 59.8031 197.943 59.8031C198.425 59.8031 198.786 59.9004 199.028 60.095H199.099C199.099 59.2323 199.06 58.3623 198.982 57.4869L200.422 57.4428C200.368 58.2963 200.341 59.5223 200.341 61.121C200.341 62.7196 200.378 64.1017 200.453 65.1993ZM199.174 63.953C199.174 62.7857 199.149 61.8203 199.098 61.0549C198.863 60.8787 198.584 60.7906 198.258 60.7906C197.811 60.7906 197.477 60.9705 197.261 61.3284C197.043 61.6863 196.936 62.1268 196.936 62.6462C196.936 63.1069 197.041 63.5052 197.251 63.841C197.462 64.1751 197.753 64.344 198.126 64.344C198.624 64.344 198.973 64.2136 199.174 63.9548V63.953Z" fill="#1E1919"/>
<path d="M25.4216 18.8919L40.6112 0H50.8449V50.9491H39.0721V19.147L26.3052 35.1206H24.5363L11.771 19.147V50.9491H0V0H10.2217L25.4233 18.8919H25.4216Z" fill="#D83636"/>
<path d="M95.828 0L80.4341 23.9613L101.308 50.9473H86.5937L67.8527 27.0594V50.9473H56.08V0H67.8527V22.939L82.8789 0H95.8298H95.828Z" fill="#D83636"/>
<path d="M147.036 4.40314C145.142 2.8614 142.767 1.7418 139.907 1.04618C137.047 0.348723 134.063 0.00183105 130.947 0.00183105C127.831 0.00183105 122.95 0.26613 116.13 0.794728C115.912 0.811247 115.727 0.98194 115.683 1.2132C115.463 2.31628 115.189 3.75157 114.86 5.52274L107.208 49.0605C107.155 49.3578 107.344 49.6441 107.623 49.6882C113.013 50.5307 117.363 50.951 120.673 50.951C141.984 50.951 152.64 40.3588 152.64 19.1745C152.64 12.3633 150.773 7.43708 147.036 4.40498V4.40314ZM122.959 20.8135C123.591 20.3308 124.408 20.1932 125.179 20.2776C125.95 20.3602 126.687 20.6484 127.409 20.9512C126.641 20.1583 125.72 19.5544 124.949 18.7634C124.178 17.9742 123.541 16.9133 123.596 15.768C123.648 14.6227 124.644 13.5086 125.685 13.7472C126.701 13.9821 127.169 15.21 127.617 16.2195C127.978 17.0363 128.431 17.8108 128.957 18.5174C128.623 17.6034 128.286 16.6802 128.157 15.7093C128.029 14.7383 128.129 13.6977 128.618 12.8699C128.827 12.5157 129.113 12.2 129.474 12.0476C130.069 11.798 130.75 12.0274 131.289 12.3945C132.2 13.0149 132.878 14.0464 133.056 15.1917C133.233 16.337 132.888 17.5777 132.11 18.3816C131.732 18.7726 131.211 19.2039 131.328 19.7545C131.429 20.2262 132.043 20.4226 132.409 20.1436C132.525 20.0555 132.617 19.9362 132.721 19.8316C133.293 19.2663 134.286 19.2957 134.829 19.8903C135.372 20.4887 135.38 21.5587 134.844 22.1644C134.405 22.66 133.739 22.805 133.153 23.0693C132.498 23.3648 131.895 23.8493 131.548 24.5192C131.335 24.9304 131.223 25.3984 130.99 25.7948C130.395 26.8172 129.694 26.228 128.861 25.9692C127.91 25.6719 126.931 25.4865 125.983 25.1763C124.607 24.7321 123.221 23.9576 122.537 22.5976C122.428 22.381 122.338 22.1405 122.338 21.8909C122.338 21.4504 122.625 21.065 122.959 20.8117V20.8135ZM131.199 36.6256C131.082 36.8385 130.937 37.0459 130.739 37.1744C130.387 37.4001 129.934 37.3304 129.561 37.1524C128.851 36.8165 128.322 36.1319 127.993 35.3738C127.665 34.6177 127.515 33.7881 127.387 32.964C127.147 34.0799 127.14 35.2435 126.907 36.3631C126.675 37.4809 126.156 38.6152 125.216 39.153C124.278 39.6889 122.879 39.3402 122.537 38.2536C122.203 37.1946 122.94 36.1319 123.516 35.1995C123.98 34.4433 124.365 33.6302 124.658 32.7804C124.101 33.5568 123.541 34.3442 122.831 34.9609C122.123 35.5776 121.243 36.0181 120.332 35.9905C119.944 35.9777 119.547 35.8749 119.239 35.618C118.735 35.1976 118.568 34.4506 118.584 33.7624C118.611 32.6005 119.084 31.4461 119.905 30.6936C120.725 29.941 121.89 29.6235 122.93 29.9319C123.436 30.0805 124.045 30.343 124.423 29.952C124.747 29.6162 124.587 28.9462 124.178 28.7499C124.049 28.6893 123.906 28.6636 123.771 28.6214C123.025 28.3809 122.54 27.4522 122.738 26.6428C122.933 25.8316 123.781 25.2754 124.539 25.4626C125.159 25.6113 125.617 26.1546 126.127 26.5602C126.699 27.0172 127.396 27.3256 128.106 27.3035C128.543 27.2889 128.972 27.1549 129.41 27.1641C130.528 27.1916 130.419 28.1442 130.639 29.0454C130.891 30.0805 131.245 31.0808 131.487 32.1178C131.836 33.6174 131.931 35.2968 131.199 36.6274V36.6256ZM144.415 28.425C144.267 28.8123 143.971 29.1151 143.637 29.3353C142.863 29.8474 141.897 29.9392 140.995 29.7869C140.096 29.6327 139.245 29.2546 138.406 28.8802C139.053 29.4602 139.761 29.9594 140.515 30.3632C141.445 30.8624 142.575 31.3855 142.776 32.4849C142.982 33.61 141.931 34.6654 140.867 34.7039C139.805 34.7443 138.833 34.0395 138.113 33.1952C137.393 32.3509 136.848 31.347 136.123 30.5082C136.392 31.2901 136.647 32.0921 136.712 32.9236C136.778 33.7569 136.635 34.6342 136.177 35.3078C135.935 35.662 135.573 35.9648 135.164 35.9593C134.934 35.9575 134.713 35.8547 134.512 35.7317C133.262 34.9737 132.566 33.465 132.176 31.9783C131.907 30.9505 131.749 29.8915 131.488 28.86C131.262 27.9588 130.726 27.1953 131.684 26.5676C132.057 26.3234 132.491 26.2115 132.878 25.9876C133.504 25.6223 133.964 24.9818 134.248 24.2788C134.504 23.6511 134.652 22.9353 135.116 22.4727C135.688 21.9038 136.679 21.9295 137.224 22.526C137.769 23.1225 137.781 24.1889 137.245 24.7982C137.148 24.9083 137.035 25.0056 136.952 25.1286C136.688 25.5195 136.86 26.1858 137.296 26.3033C137.805 26.4391 138.212 25.8848 138.581 25.4847C139.339 24.6587 140.496 24.3063 141.555 24.5174C142.616 24.7266 143.561 25.4736 144.121 26.4666C144.451 27.0539 144.655 27.7918 144.414 28.4287L144.415 28.425Z" fill="#1E1919"/>
<path d="M157.068 4.5885C158.407 1.60413 160.931 0.111938 164.644 0.111938C168.358 0.111938 171.08 1.26825 172.81 3.58086C174.539 5.89348 175.404 9.71113 175.404 15.032V41.6619L192.218 1.67938H200.451L178.932 50.8372H162.741L160.666 15.032C160.528 12.3963 160.123 10.1828 159.455 8.39331C158.786 6.60378 157.991 5.33551 157.068 4.5885Z" fill="#1E1919"/>
<path d="M213.038 23.7814C211.039 23.1335 209.023 22.0084 208.029 20.0298C207.869 19.7104 207.736 19.3636 207.736 19.002C207.736 18.3614 208.155 17.8016 208.64 17.4309C209.559 16.7279 210.748 16.5278 211.868 16.649C212.99 16.7701 214.063 17.1886 215.113 17.6309C213.996 16.4765 212.656 15.5973 211.534 14.4483C210.412 13.2994 209.486 11.7558 209.565 10.0911C209.643 8.42635 211.092 6.80568 212.604 7.15441C214.081 7.49579 214.761 9.27981 215.411 10.75C215.939 11.9412 216.594 13.0644 217.362 14.0923C216.875 12.7653 216.385 11.4217 216.199 10.0085C216.014 8.5952 216.16 7.08283 216.87 5.8788C217.173 5.36488 217.59 4.90603 218.116 4.68395C218.979 4.32054 219.97 4.65458 220.755 5.18869C222.081 6.08987 223.065 7.5894 223.324 9.25412C223.583 10.9207 223.081 12.7249 221.948 13.894C221.399 14.463 220.639 15.0889 220.811 15.8891C220.958 16.5756 221.851 16.8601 222.386 16.4544C222.555 16.3278 222.687 16.1534 222.839 16.0029C223.671 15.1788 225.112 15.2192 225.903 16.0892C226.695 16.9592 226.705 18.5119 225.926 19.3948C225.289 20.1161 224.318 20.329 223.467 20.7126C222.512 21.1421 221.635 21.8487 221.131 22.8215C220.821 23.4198 220.658 24.0989 220.321 24.6789C219.454 26.1637 218.435 25.3066 217.226 24.9304C215.84 24.499 214.417 24.2274 213.036 23.7795L213.038 23.7814Z" fill="#D83636"/>
<path d="M221.043 33.8688C221.552 36.0492 221.69 38.4922 220.626 40.4267C220.454 40.7387 220.246 41.0397 219.957 41.2251C219.446 41.5536 218.785 41.4527 218.242 41.1939C217.21 40.7038 216.443 39.7072 215.964 38.6078C215.486 37.5084 215.268 36.2989 215.081 35.1022C214.733 36.7283 214.721 38.4187 214.383 40.0449C214.044 41.6729 213.29 43.3211 211.924 44.103C210.557 44.8849 208.526 44.3747 208.027 42.7962C207.54 41.2545 208.613 39.7109 209.449 38.3527C210.126 37.2533 210.685 36.0694 211.109 34.8324C210.302 35.9648 209.485 37.1064 208.453 38.0039C207.423 38.9015 206.144 39.542 204.82 39.5016C204.255 39.4851 203.676 39.3346 203.23 38.962C202.498 38.349 202.256 37.2606 202.278 36.2621C202.315 34.5736 203.003 32.8923 204.197 31.7984C205.39 30.7045 207.086 30.2438 208.596 30.6898C209.331 30.9064 210.218 31.2882 210.768 30.7192C211.238 30.231 211.007 29.2582 210.411 28.9719C210.223 28.882 210.016 28.8471 209.82 28.7847C208.737 28.436 208.031 27.0833 208.317 25.9049C208.603 24.7266 209.835 23.9208 210.937 24.1888C211.837 24.4091 212.505 25.1965 213.247 25.7875C214.08 26.45 215.091 26.8997 216.126 26.8667C216.761 26.8465 217.386 26.6501 218.021 26.6648C219.648 26.7052 219.488 28.0891 219.808 29.4014C220.176 30.9046 220.689 32.3601 221.041 33.8688H221.043Z" fill="#EFD803"/>
<path d="M222.052 33.6651C222.621 35.829 223.631 38.0205 225.449 39.1236C225.742 39.3016 226.062 39.4503 226.397 39.4558C226.991 39.465 227.517 39.0227 227.87 38.5069C228.537 37.5268 228.741 36.2512 228.648 35.0398C228.554 33.8284 228.183 32.6648 227.79 31.5268C228.842 32.7492 229.635 34.2084 230.682 35.4363C231.729 36.6642 233.146 37.6883 234.692 37.6296C236.237 37.5708 237.763 36.0364 237.465 34.4011C237.172 32.8024 235.529 32.0426 234.177 31.3158C233.083 30.7284 232.049 30.0016 231.11 29.1592C232.334 29.7061 233.57 30.2567 234.879 30.4788C236.186 30.7027 237.593 30.5688 238.721 29.8217C239.203 29.5024 239.636 29.0619 239.85 28.4984C240.203 27.5734 239.906 26.4997 239.425 25.6462C238.611 24.2036 237.237 23.117 235.694 22.8105C234.154 22.504 232.472 23.016 231.368 24.2164C230.832 24.8001 230.24 25.6076 229.499 25.4094C228.866 25.2406 228.615 24.2715 229 23.7025C229.121 23.5226 229.285 23.3831 229.426 23.2216C230.204 22.3369 230.189 20.7842 229.395 19.9179C228.602 19.0516 227.162 19.0149 226.331 19.8408C225.651 20.5162 225.437 21.5569 225.067 22.4691C224.654 23.4914 223.985 24.4238 223.072 24.9542C222.512 25.2791 221.88 25.4425 221.337 25.7985C219.945 26.7089 220.724 27.8211 221.055 29.1316C221.433 30.6312 221.661 32.1711 222.054 33.6669L222.052 33.6651Z" fill="#1E1919"/>
</g>
<defs>
<clipPath id="clip0_135_214">
<rect width="240" height="80" fill="white"/>
</clipPath>
</defs>
</svg>
